<svg width="2560" height="1440" viewBox="0 0 2560 1440" fill="none" xmlns="http://www.w3.org/2000/svg">
    <g clip-path="url(#clip0_1230_2)">
        <rect width="2560" height="1440" fill="white"/>
        <g clip-path="url(#clip1_1230_2)">
            <rect width="2565.14" height="1776" transform="translate(0 -184)" fill="#6E30FF"/>
            <path d="M2369.3 630.51C2369.3 792.448 2238.02 923.725 2076.08 923.725C1914.14 923.725 1782.87 792.448 1782.87 630.51C1782.87 468.572 1914.14 337.295 2076.08 337.295C2238.02 337.295 2369.3 468.572 2369.3 630.51Z" stroke="#814AFF" stroke-width="45.4034"/>
            <circle cx="2076.08" cy="630.51" r="425.419" stroke="#814AFF" stroke-width="74.7821"/>
            <path d="M2091.92 248.609L2087.5 282.7C2087.42 283.286 2087.46 283.882 2087.61 284.453C2087.76 285.025 2088.03 285.56 2088.39 286.029C2088.75 286.497 2089.2 286.89 2089.71 287.184C2090.22 287.479 2090.79 287.669 2091.38 287.743L2125.48 292.164C2126.67 292.317 2127.86 291.995 2128.81 291.267C2129.75 290.54 2130.37 289.467 2130.53 288.284L2134.95 254.177C2135.1 252.992 2134.77 251.796 2134.04 250.851C2133.31 249.906 2132.23 249.289 2131.05 249.133L2096.96 244.729C2096.37 244.651 2095.78 244.689 2095.21 244.842C2094.64 244.995 2094.1 245.26 2093.63 245.62C2093.16 245.981 2092.77 246.431 2092.48 246.944C2092.18 247.457 2091.99 248.023 2091.92 248.609ZM2100.27 254.226L2125.43 257.501L2122.16 282.667L2096.99 279.393L2100.27 254.226Z" fill="#3FE2E0"/>
            <path d="M1976.04 389.328C1976.04 373.243 1969.65 357.816 1958.28 346.442C1946.9 335.068 1931.48 328.678 1915.39 328.678C1899.3 328.678 1883.88 335.068 1872.5 346.442C1861.13 357.816 1854.74 373.243 1854.74 389.328C1854.74 391.82 1855.73 394.21 1857.49 395.972C1859.25 397.735 1861.64 398.725 1864.14 398.725C1866.63 398.725 1869.02 397.735 1870.78 395.972C1872.54 394.21 1873.53 391.82 1873.53 389.328C1873.53 378.227 1877.94 367.58 1885.79 359.731C1893.64 351.881 1904.29 347.471 1915.39 347.471C1926.49 347.471 1937.14 351.881 1944.99 359.731C1952.84 367.58 1957.25 378.227 1957.25 389.328C1957.25 395.898 1954.64 402.199 1949.99 406.845C1945.35 411.491 1939.04 414.101 1932.47 414.101C1925.9 414.101 1919.6 411.491 1914.96 406.845C1910.31 402.199 1907.7 395.898 1907.7 389.328C1907.7 387.289 1908.51 385.334 1909.95 383.892C1911.4 382.45 1913.35 381.64 1915.39 381.64C1917.43 381.64 1919.38 382.45 1920.83 383.892C1922.27 385.334 1923.08 387.289 1923.08 389.328C1923.08 391.82 1924.07 394.21 1925.83 395.972C1927.59 397.735 1929.98 398.725 1932.47 398.725C1934.97 398.725 1937.36 397.735 1939.12 395.972C1940.88 394.21 1941.87 391.82 1941.87 389.328C1941.87 382.305 1939.08 375.569 1934.11 370.603C1929.15 365.637 1922.41 362.847 1915.39 362.847C1908.37 362.847 1901.63 365.637 1896.66 370.603C1891.7 375.569 1888.91 382.305 1888.91 389.328C1888.91 400.882 1893.5 411.964 1901.67 420.134C1909.84 428.304 1920.92 432.894 1932.47 432.894C1944.03 432.894 1955.11 428.304 1963.28 420.134C1971.45 411.964 1976.04 400.882 1976.04 389.328Z" fill="#3FE2E0"/>
            <path d="M1683.97 517.04C1680.84 518.268 1678.09 520.296 1675.99 522.922C1673.89 525.548 1672.51 528.68 1672 532.004L1641.52 730.642C1640.97 733.977 1641.33 737.396 1642.53 740.551C1643.74 743.706 1645.76 746.485 1648.39 748.606C1651.02 750.727 1654.17 752.114 1657.51 752.626C1660.85 753.138 1664.26 752.757 1667.41 751.522L1854.49 678.442C1857.63 677.244 1860.39 675.233 1862.49 672.616C1864.6 669.999 1865.97 666.869 1866.46 663.548C1866.98 660.217 1866.61 656.809 1865.39 653.669C1864.16 650.528 1862.13 647.765 1859.5 645.66L1702.62 520.381C1700.09 518.228 1697.02 516.785 1693.75 516.198C1690.47 515.611 1687.1 515.902 1683.97 517.04ZM1809.95 654.639L1684.67 703.359L1704.99 570.284L1809.95 654.639Z" fill="#3FE2E0"/>
            <path d="M401.854 119.466C395.233 116.369 387.918 115.064 380.639 115.681C373.359 116.297 366.372 118.815 360.375 122.98L2.0757 372.022C-3.98358 376.157 -8.83897 381.823 -11.9961 388.445C-15.1533 395.068 -16.5 402.411 -15.8999 409.728C-15.2999 417.044 -12.7741 424.074 -8.57931 430.103C-4.3845 436.132 1.32983 440.945 7.98316 444.053L403.167 629.591C409.75 632.744 417.052 634.09 424.322 633.491C431.592 632.892 438.568 630.368 444.537 626.181C450.554 622.015 455.362 616.334 458.476 609.711C461.589 603.087 462.897 595.756 462.268 588.46L424.529 153.859C424.118 146.639 421.802 139.654 417.82 133.614C413.838 127.573 408.329 122.692 401.854 119.466ZM373.928 523.792L109.638 399.222L349.527 232.223L373.928 523.792Z" fill="#3FE2E0"/>
            <path d="M2397.07 1338.15C2396.81 1332.64 2395.11 1327.3 2392.14 1322.65C2389.16 1318.01 2385.03 1314.23 2380.13 1311.69L2087.82 1160.04C2082.92 1157.45 2077.43 1156.2 2071.9 1156.42C2066.37 1156.64 2060.99 1158.33 2056.32 1161.3C2051.64 1164.27 2047.84 1168.43 2045.29 1173.35C2042.74 1178.28 2041.53 1183.79 2041.8 1189.32L2056.91 1518.46C2057.12 1523.96 2058.79 1529.31 2061.75 1533.95C2064.7 1538.6 2068.84 1542.37 2073.74 1544.88C2078.63 1547.43 2084.12 1548.65 2089.64 1548.39C2095.15 1548.14 2100.51 1546.44 2105.16 1543.45L2382.08 1365.39C2386.76 1362.57 2390.61 1358.57 2393.24 1353.79C2395.87 1349 2397.19 1343.61 2397.07 1338.15ZM2117.27 1461.72L2107.49 1241.43L2303.37 1342.87L2117.27 1461.72Z" fill="#3FE2E0"/>
            <path d="M1310.29 915.758C1306.38 921.941 1305.09 929.422 1306.68 936.561C1308.28 943.699 1312.65 949.913 1318.82 953.839L1401.66 1006.27L1349.16 1089.04C1345.24 1095.24 1343.94 1102.74 1345.55 1109.9C1347.16 1117.05 1351.55 1123.28 1357.75 1127.19C1363.95 1131.11 1371.45 1132.41 1378.61 1130.8C1385.76 1129.19 1391.99 1124.8 1395.9 1118.6L1448.27 1035.83L1531.04 1088.33C1537.24 1092.25 1544.74 1093.55 1551.89 1091.94C1559.05 1090.32 1565.27 1085.93 1569.19 1079.74C1573.11 1073.54 1574.41 1066.03 1572.79 1058.88C1571.18 1051.72 1566.79 1045.5 1560.59 1041.58L1477.89 989.15L1530.33 906.45C1532.27 903.381 1533.58 899.959 1534.2 896.38C1534.82 892.802 1534.73 889.136 1533.93 885.594C1533.13 882.051 1531.64 878.7 1529.55 875.732C1527.46 872.765 1524.8 870.238 1521.73 868.298C1518.66 866.357 1515.24 865.04 1511.66 864.422C1508.08 863.803 1504.42 863.897 1500.87 864.695C1497.33 865.493 1493.98 866.982 1491.01 869.075C1488.04 871.168 1485.52 873.825 1483.58 876.895L1431.14 959.594L1348.45 907.161C1342.24 903.262 1334.74 901.977 1327.6 903.588C1320.45 905.199 1314.23 909.575 1310.29 915.758Z" fill="#3FE2E0"/>
            <path d="M847.336 995.18L661.341 1189.83C654.927 1196.63 651.453 1205.69 651.671 1215.03C651.889 1224.38 655.781 1233.26 662.505 1239.75L857.158 1425.75C860.509 1428.96 864.46 1431.47 868.785 1433.15C873.109 1434.82 877.722 1435.63 882.36 1435.52C886.997 1435.42 891.567 1434.39 895.809 1432.52C900.05 1430.64 903.88 1427.95 907.078 1424.59L1093.07 1229.93C1096.27 1226.59 1098.77 1222.65 1100.44 1218.34C1102.11 1214.03 1102.91 1209.44 1102.8 1204.82C1102.69 1200.2 1101.67 1195.64 1099.8 1191.42C1097.92 1187.19 1095.24 1183.38 1091.89 1180.19L897.156 994.096C890.402 987.641 881.362 984.128 872.021 984.331C862.681 984.535 853.803 988.437 847.336 995.18ZM1017.72 1206.55L880.462 1350.3L736.713 1213.04L873.975 1069.29L1017.72 1206.55Z" fill="#3FE2E0"/>
            <path d="M2551.49 466.766L2360.37 561.74C2353.76 565.08 2348.73 570.894 2346.37 577.919C2344.01 584.944 2344.52 592.614 2347.78 599.268L2442.76 790.392C2444.39 793.686 2446.66 796.625 2449.43 799.041C2452.2 801.457 2455.42 803.303 2458.91 804.473C2462.39 805.642 2466.08 806.112 2469.74 805.856C2473.41 805.6 2476.99 804.623 2480.28 802.981L2671.41 708.007C2674.69 706.377 2677.62 704.115 2680.02 701.352C2682.43 698.59 2684.27 695.379 2685.43 691.905C2686.59 688.431 2687.06 684.761 2686.8 681.106C2686.54 677.452 2685.57 673.884 2683.93 670.606L2588.93 479.387C2585.63 472.754 2579.84 467.698 2572.82 465.332C2565.8 462.966 2558.13 463.482 2551.49 466.766ZM2621.54 670.264L2480.47 740.426L2410.3 599.354L2551.38 529.192L2621.54 670.264Z" fill="#3FE2E0"/>
            <path d="M-216.603 1238.12C-213.497 1247.33 -206.961 1254.99 -198.353 1259.5C-189.746 1264.02 -179.73 1265.03 -170.392 1262.34C-161.053 1259.65 -153.11 1253.46 -148.217 1245.06C-143.325 1236.66 -141.86 1226.7 -144.125 1217.24C-156.431 1174.36 -151.202 1128.33 -129.591 1089.3C-107.979 1050.27 -71.755 1021.42 -28.8864 1009.11C13.9822 996.798 59.9833 1002.03 98.9972 1023.65C138.011 1045.27 166.842 1081.51 179.148 1124.4C186.429 1149.79 183.331 1177.03 170.536 1200.14C157.742 1223.24 136.3 1240.31 110.925 1247.6C85.5493 1254.88 58.3196 1251.78 35.2279 1238.98C12.1363 1226.18 -4.92724 1204.73 -12.2085 1179.34C-14.4657 1171.45 -13.4981 1162.99 -9.52077 1155.82C-5.54341 1148.65 1.11839 1143.35 9.0004 1141.09C16.8824 1138.83 25.3389 1139.8 32.5083 1143.78C39.6778 1147.76 44.9736 1154.42 47.2308 1162.31C49.9976 1171.94 56.4769 1180.08 65.2425 1184.94C74.0081 1189.79 84.3423 1190.97 93.9718 1188.2C103.601 1185.43 111.736 1178.95 116.588 1170.18C121.441 1161.41 122.613 1151.07 119.846 1141.43C112.055 1114.3 93.8095 1091.37 69.1217 1077.69C44.4339 1064.02 15.3265 1060.71 -11.7963 1068.51C-38.9191 1076.3 -61.8355 1094.56 -75.5052 1119.26C-89.1749 1143.96 -92.4772 1173.08 -84.6862 1200.21C-70.9499 1243.69 -40.8085 1280.08 -0.66989 1301.67C39.4687 1323.25 86.4392 1328.33 130.257 1315.81C174.074 1303.29 211.283 1274.16 233.974 1234.62C256.664 1195.08 263.047 1148.25 251.764 1104.08C233.658 1042.25 191.822 990.104 135.403 959.044C78.9833 927.983 12.5684 920.531 -49.3262 938.317C-111.221 956.103 -163.561 997.681 -194.907 1053.96C-226.252 1110.24 -234.051 1176.65 -216.603 1238.67L-216.603 1238.12Z" fill="#3FE2E0"/>
            <path d="M913.115 280.277C916.22 289.489 922.756 297.149 931.364 301.661C939.972 306.173 949.988 307.19 959.326 304.5C968.665 301.811 976.608 295.621 981.5 287.221C986.393 278.82 987.858 268.856 985.592 259.401C973.287 216.511 978.516 170.488 1000.13 131.455C1021.74 92.4216 1057.96 63.5766 1100.83 51.2652C1143.7 38.9538 1189.7 44.1846 1228.71 65.8067C1267.73 87.4287 1296.56 123.671 1308.87 166.56C1316.15 191.948 1313.05 219.19 1300.25 242.293C1287.46 265.396 1266.02 282.468 1240.64 289.753C1215.27 297.037 1188.04 293.939 1164.95 281.138C1141.85 268.338 1124.79 246.883 1117.51 221.496C1115.25 213.61 1116.22 205.15 1120.2 197.977C1124.17 190.804 1130.84 185.506 1138.72 183.247C1146.6 180.989 1155.06 181.956 1162.23 185.935C1169.4 189.914 1174.69 196.58 1176.95 204.466C1179.72 214.1 1186.19 222.24 1194.96 227.095C1203.73 231.95 1214.06 233.122 1223.69 230.354C1233.32 227.586 1241.45 221.104 1246.31 212.334C1251.16 203.564 1252.33 193.225 1249.56 183.591C1241.77 156.454 1223.53 133.526 1198.84 119.85C1174.15 106.173 1145.04 102.869 1117.92 110.664C1090.8 118.459 1067.88 136.714 1054.21 161.414C1040.54 186.114 1037.24 215.235 1045.03 242.371C1058.77 285.842 1088.91 322.239 1129.05 343.825C1169.19 365.41 1216.16 370.482 1259.97 357.962C1303.79 345.442 1341 316.316 1363.69 276.778C1386.38 237.24 1392.76 190.407 1381.48 146.235C1363.38 84.405 1321.54 32.2607 1265.12 1.19976C1208.7 -29.8612 1142.29 -37.3129 1080.39 -19.5267C1018.5 -1.74051 966.156 39.8372 934.811 96.1184C903.466 152.4 895.666 218.807 913.115 280.826L913.115 280.277Z" fill="#3FE2E0"/>
        </g>
    </g>
    <defs>
        <clipPath id="clip0_1230_2">
            <rect width="2560" height="1440" fill="white"/>
        </clipPath>
        <clipPath id="clip1_1230_2">
            <rect width="2565.14" height="1776" fill="white" transform="translate(0 -184)"/>
        </clipPath>
    </defs>
</svg>
